<svg width="17" height="16" viewBox="0 0 17 16" fill="none" xmlns="http://www.w3.org/2000/svg">
<g clip-path="url(#clip0_60_2101)">
<path d="M15.7416 0H1.25508C0.561133 0 0 0.515625 0 1.15313V14.8438C0 15.4813 0.561133 16 1.25508 16H15.7416C16.4355 16 17 15.4813 17 14.8469V1.15313C17 0.515625 16.4355 0 15.7416 0ZM5.04355 13.6344H2.52012V5.99687H5.04355V13.6344ZM3.78184 4.95625C2.97168 4.95625 2.31758 4.34062 2.31758 3.58125C2.31758 2.82188 2.97168 2.20625 3.78184 2.20625C4.58867 2.20625 5.24277 2.82188 5.24277 3.58125C5.24277 4.3375 4.58867 4.95625 3.78184 4.95625ZM14.4865 13.6344H11.9664V9.92188C11.9664 9.0375 11.9498 7.89687 10.6549 7.89687C9.34336 7.89687 9.14414 8.8625 9.14414 9.85938V13.6344H6.62734V5.99687H9.04453V7.04063H9.07773C9.41309 6.44063 10.2365 5.80625 11.4617 5.80625C14.015 5.80625 14.4865 7.3875 14.4865 9.44375V13.6344V13.6344Z" fill="#98A2B3"/>
</g>
<defs>
<clipPath id="clip0_60_2101">
<rect width="17" height="16" fill="white"/>
</clipPath>
</defs>
</svg>
