<svg width="16" height="16" viewBox="0 0 16 16" fill="none" xmlns="http://www.w3.org/2000/svg">
<path d="M5.03344 14.5C11.0697 14.5 14.3722 9.49785 14.3722 5.16129C14.3722 5.02066 14.3691 4.87691 14.3628 4.73629C15.0053 4.27169 15.5597 3.69622 16 3.03691C15.4017 3.30311 14.7664 3.47697 14.1159 3.55254C14.8009 3.14198 15.3137 2.49703 15.5594 1.73722C14.915 2.11908 14.2104 2.38845 13.4756 2.53379C12.9806 2.00775 12.326 1.65946 11.6131 1.54275C10.9003 1.42604 10.1688 1.54741 9.53183 1.88811C8.89486 2.22881 8.38787 2.76985 8.08923 3.42759C7.7906 4.08532 7.71695 4.82312 7.87969 5.52691C6.575 5.46144 5.29862 5.12252 4.13332 4.53211C2.96802 3.94171 1.9398 3.113 1.11531 2.09972C0.696266 2.82221 0.568038 3.67714 0.756687 4.49077C0.945337 5.3044 1.43671 6.01568 2.13094 6.48004C1.60975 6.46349 1.09998 6.32317 0.64375 6.07066V6.11129C0.643283 6.86948 0.905399 7.60444 1.38554 8.19123C1.86568 8.77801 2.53422 9.18042 3.2775 9.33004C2.7947 9.46213 2.28799 9.48138 1.79656 9.38629C2.0063 10.0383 2.41438 10.6086 2.96385 11.0176C3.51331 11.4266 4.17675 11.6538 4.86156 11.6675C3.69895 12.5808 2.26278 13.0761 0.784375 13.0738C0.522191 13.0734 0.260266 13.0573 0 13.0257C1.5019 13.9892 3.24902 14.501 5.03344 14.5Z" fill="#98A2B3"/>
</svg>
